# Blender v2.93.4 OBJ File: 'Playing Cards.blend'
# www.blender.org
mtllib Plane_001.mtl
o Plane.001
v -0.031750 0.000050 0.040005
v -0.028575 0.000050 0.044450
v -0.031740 0.000050 0.040354
v -0.031711 0.000050 0.040700
v -0.031662 0.000050 0.041043
v -0.031595 0.000050 0.041379
v -0.031508 0.000050 0.041706
v -0.031404 0.000050 0.042023
v -0.031282 0.000050 0.042328
v -0.031144 0.000050 0.042618
v -0.030989 0.000050 0.042892
v -0.030820 0.000050 0.043148
v -0.030637 0.000050 0.043385
v -0.030441 0.000050 0.043601
v -0.030234 0.000050 0.043795
v -0.030016 0.000050 0.043966
v -0.029790 0.000050 0.044112
v -0.029556 0.000050 0.044232
v -0.029316 0.000050 0.044327
v -0.029072 0.000050 0.044395
v -0.028824 0.000050 0.044436
v -0.028575 0.000050 -0.044450
v -0.031750 0.000050 -0.040005
v -0.028824 0.000050 -0.044436
v -0.029072 0.000050 -0.044395
v -0.029316 0.000050 -0.044327
v -0.029556 0.000050 -0.044232
v -0.029790 0.000050 -0.044112
v -0.030016 0.000050 -0.043966
v -0.030234 0.000050 -0.043795
v -0.030441 0.000050 -0.043601
v -0.030637 0.000050 -0.043385
v -0.030820 0.000050 -0.043148
v -0.030989 0.000050 -0.042892
v -0.031144 0.000050 -0.042618
v -0.031282 0.000050 -0.042327
v -0.031404 0.000050 -0.042023
v -0.031508 0.000050 -0.041706
v -0.031595 0.000050 -0.041379
v -0.031662 0.000050 -0.041043
v -0.031711 0.000050 -0.040700
v -0.031740 0.000050 -0.040354
v 0.031750 0.000050 0.040005
v 0.028575 0.000050 0.044450
v 0.031740 0.000050 0.040354
v 0.031711 0.000050 0.040700
v 0.031662 0.000050 0.041043
v 0.031595 0.000050 0.041379
v 0.031508 0.000050 0.041706
v 0.031404 0.000050 0.042023
v 0.031282 0.000050 0.042327
v 0.031144 0.000050 0.042618
v 0.030989 0.000050 0.042892
v 0.030820 0.000050 0.043148
v 0.030637 0.000050 0.043385
v 0.030441 0.000050 0.043601
v 0.030234 0.000050 0.043795
v 0.030016 0.000050 0.043966
v 0.029790 0.000050 0.044112
v 0.029556 0.000050 0.044232
v 0.029316 0.000050 0.044327
v 0.029072 0.000050 0.044395
v 0.028824 0.000050 0.044436
v 0.031750 0.000050 -0.040005
v 0.028575 0.000050 -0.044450
v 0.031740 0.000050 -0.040354
v 0.031711 0.000050 -0.040700
v 0.031662 0.000050 -0.041043
v 0.031595 0.000050 -0.041379
v 0.031508 0.000050 -0.041706
v 0.031404 0.000050 -0.042023
v 0.031282 0.000050 -0.042328
v 0.031144 0.000050 -0.042618
v 0.030989 0.000050 -0.042892
v 0.030820 0.000050 -0.043148
v 0.030637 0.000050 -0.043385
v 0.030441 0.000050 -0.043601
v 0.030234 0.000050 -0.043795
v 0.030016 0.000050 -0.043966
v 0.029790 0.000050 -0.044112
v 0.029556 0.000050 -0.044232
v 0.029316 0.000050 -0.044327
v 0.029072 0.000050 -0.044395
v 0.028824 0.000050 -0.044436
v -0.031750 -0.000050 0.040005
v -0.028575 -0.000050 0.044450
v -0.031740 -0.000050 0.040354
v -0.031711 -0.000050 0.040700
v -0.031662 -0.000050 0.041043
v -0.031595 -0.000050 0.041379
v -0.031508 -0.000050 0.041706
v -0.031404 -0.000050 0.042023
v -0.031282 -0.000050 0.042328
v -0.031144 -0.000050 0.042618
v -0.030989 -0.000050 0.042892
v -0.030820 -0.000050 0.043148
v -0.030637 -0.000050 0.043385
v -0.030441 -0.000050 0.043601
v -0.030234 -0.000050 0.043795
v -0.030016 -0.000050 0.043966
v -0.029790 -0.000050 0.044112
v -0.029556 -0.000050 0.044232
v -0.029316 -0.000050 0.044327
v -0.029072 -0.000050 0.044395
v -0.028824 -0.000050 0.044436
v -0.028575 -0.000050 -0.044450
v -0.031750 -0.000050 -0.040005
v -0.028824 -0.000050 -0.044436
v -0.029072 -0.000050 -0.044395
v -0.029316 -0.000050 -0.044327
v -0.029556 -0.000050 -0.044232
v -0.029790 -0.000050 -0.044112
v -0.030016 -0.000050 -0.043966
v -0.030234 -0.000050 -0.043795
v -0.030441 -0.000050 -0.043601
v -0.030637 -0.000050 -0.043385
v -0.030820 -0.000050 -0.043148
v -0.030989 -0.000050 -0.042892
v -0.031144 -0.000050 -0.042618
v -0.031282 -0.000050 -0.042327
v -0.031404 -0.000050 -0.042023
v -0.031508 -0.000050 -0.041706
v -0.031595 -0.000050 -0.041379
v -0.031662 -0.000050 -0.041043
v -0.031711 -0.000050 -0.040700
v -0.031740 -0.000050 -0.040354
v 0.031750 -0.000050 0.040005
v 0.028575 -0.000050 0.044450
v 0.031740 -0.000050 0.040354
v 0.031711 -0.000050 0.040700
v 0.031662 -0.000050 0.041043
v 0.031595 -0.000050 0.041379
v 0.031508 -0.000050 0.041706
v 0.031404 -0.000050 0.042023
v 0.031282 -0.000050 0.042327
v 0.031144 -0.000050 0.042618
v 0.030989 -0.000050 0.042892
v 0.030820 -0.000050 0.043148
v 0.030637 -0.000050 0.043385
v 0.030441 -0.000050 0.043601
v 0.030234 -0.000050 0.043795
v 0.030016 -0.000050 0.043966
v 0.029790 -0.000050 0.044112
v 0.029556 -0.000050 0.044232
v 0.029316 -0.000050 0.044327
v 0.029072 -0.000050 0.044395
v 0.028824 -0.000050 0.044436
v 0.031750 -0.000050 -0.040005
v 0.028575 -0.000050 -0.044450
v 0.031740 -0.000050 -0.040354
v 0.031711 -0.000050 -0.040700
v 0.031662 -0.000050 -0.041043
v 0.031595 -0.000050 -0.041379
v 0.031508 -0.000050 -0.041706
v 0.031404 -0.000050 -0.042023
v 0.031282 -0.000050 -0.042328
v 0.031144 -0.000050 -0.042618
v 0.030989 -0.000050 -0.042892
v 0.030820 -0.000050 -0.043148
v 0.030637 -0.000050 -0.043385
v 0.030441 -0.000050 -0.043601
v 0.030234 -0.000050 -0.043795
v 0.030016 -0.000050 -0.043966
v 0.029790 -0.000050 -0.044112
v 0.029556 -0.000050 -0.044232
v 0.029316 -0.000050 -0.044327
v 0.029072 -0.000050 -0.044395
v 0.028824 -0.000050 -0.044436
vt 0.002922 0.756263
vt 0.003202 0.755756
vt 0.003809 0.755236
vt 0.433707 0.448749
vt 0.432384 0.449881
vt 0.429566 0.450804
vt 0.002019 0.761777
vt 0.002036 0.761222
vt 0.002019 0.761777
vt 0.073916 0.993420
vt 0.073787 0.993731
vt 0.073916 0.993420
vt 0.073841 0.757010
vt 0.073971 0.757321
vt 0.073841 0.757010
vt 0.002036 0.761222
vt 0.002066 0.760674
vt 0.073787 0.993731
vt 0.073651 0.994004
vt 0.073971 0.757321
vt 0.074095 0.757667
vt 0.002066 0.760674
vt 0.002107 0.760135
vt 0.073651 0.994004
vt 0.073509 0.994238
vt 0.074095 0.757667
vt 0.074210 0.758046
vt 0.002107 0.760135
vt 0.002160 0.759611
vt 0.072748 0.994779
vt 0.003965 0.994779
vt 0.072748 0.994779
vt 0.073509 0.994238
vt 0.073363 0.994431
vt 0.074210 0.758046
vt 0.074317 0.758457
vt 0.002160 0.759611
vt 0.002225 0.759103
vt 0.003965 0.994779
vt 0.003809 0.994757
vt 0.073363 0.994431
vt 0.073213 0.994582
vt 0.074317 0.758457
vt 0.074415 0.758896
vt 0.002225 0.759103
vt 0.002300 0.758615
vt 0.003809 0.994757
vt 0.003653 0.994691
vt 0.073213 0.994582
vt 0.073060 0.994691
vt 0.074415 0.758896
vt 0.074503 0.759361
vt 0.002300 0.758615
vt 0.002386 0.758150
vt 0.003653 0.994691
vt 0.003500 0.994582
vt 0.073060 0.994691
vt 0.072904 0.994757
vt 0.074503 0.759361
vt 0.074580 0.759849
vt 0.002386 0.758150
vt 0.002482 0.757711
vt 0.003500 0.994582
vt 0.003349 0.994431
vt 0.072904 0.994757
vt 0.074580 0.759849
vt 0.074646 0.760357
vt 0.002482 0.757711
vt 0.002588 0.757300
vt 0.003349 0.994431
vt 0.003202 0.994238
vt 0.074646 0.760357
vt 0.074702 0.760881
vt 0.002588 0.757300
vt 0.002702 0.756921
vt 0.003202 0.994238
vt 0.003059 0.994004
vt 0.074702 0.760881
vt 0.074745 0.761419
vt 0.002702 0.756921
vt 0.002824 0.756575
vt 0.003059 0.994004
vt 0.002922 0.993731
vt 0.074745 0.761419
vt 0.074777 0.761968
vt 0.002824 0.756575
vt 0.002954 0.756264
vt 0.002922 0.993731
vt 0.002791 0.993420
vt 0.074777 0.761968
vt 0.074796 0.762523
vt 0.002954 0.756264
vt 0.003090 0.755991
vt 0.002791 0.993420
vt 0.002668 0.993075
vt 0.074796 0.762523
vt 0.074803 0.763082
vt 0.003090 0.755991
vt 0.003231 0.755757
vt 0.002668 0.993075
vt 0.002552 0.992696
vt 0.074803 0.763082
vt 0.074727 0.987665
vt 0.003231 0.755757
vt 0.003378 0.755563
vt 0.002552 0.992696
vt 0.002445 0.992285
vt 0.074727 0.987665
vt 0.074722 0.988224
vt 0.003378 0.755563
vt 0.003528 0.755411
vt 0.002445 0.992285
vt 0.002348 0.991847
vt 0.074722 0.988224
vt 0.074704 0.988778
vt 0.003528 0.755411
vt 0.003681 0.755302
vt 0.002348 0.991847
vt 0.002260 0.991382
vt 0.074704 0.988778
vt 0.074675 0.989326
vt 0.003681 0.755302
vt 0.003837 0.755236
vt 0.002260 0.991382
vt 0.002183 0.990895
vt 0.074675 0.989326
vt 0.074633 0.989864
vt 0.003837 0.755236
vt 0.003993 0.755214
vt 0.002183 0.990895
vt 0.002116 0.990388
vt 0.074633 0.989864
vt 0.074580 0.990388
vt 0.003993 0.755214
vt 0.072797 0.755960
vt 0.002116 0.990388
vt 0.002061 0.989864
vt 0.074580 0.990388
vt 0.074516 0.990895
vt 0.072797 0.755960
vt 0.072954 0.755982
vt 0.002061 0.989864
vt 0.002017 0.989326
vt 0.074516 0.990895
vt 0.074440 0.991382
vt 0.072954 0.755982
vt 0.073109 0.756048
vt 0.002017 0.989326
vt 0.001986 0.988778
vt 0.074440 0.991382
vt 0.074354 0.991847
vt 0.073109 0.756048
vt 0.073263 0.756157
vt 0.001986 0.988778
vt 0.001966 0.988224
vt 0.074354 0.991847
vt 0.074258 0.992285
vt 0.073263 0.756157
vt 0.073414 0.756309
vt 0.001966 0.988224
vt 0.001959 0.987665
vt 0.074258 0.992285
vt 0.074153 0.992696
vt 0.073414 0.756309
vt 0.073561 0.756503
vt 0.001959 0.987665
vt 0.002014 0.762336
vt 0.074153 0.992696
vt 0.074039 0.993075
vt 0.073561 0.756503
vt 0.073704 0.756737
vt 0.002014 0.762336
vt 0.074039 0.993075
vt 0.073704 0.756737
vt 0.003965 0.755215
vt 0.072748 0.755215
vt 0.001959 0.762328
vt 0.001966 0.761770
vt 0.072904 0.755236
vt 0.073060 0.755302
vt 0.073213 0.755411
vt 0.073363 0.755562
vt 0.073509 0.755756
vt 0.073651 0.755990
vt 0.073787 0.756263
vt 0.073916 0.756573
vt 0.074039 0.756919
vt 0.074153 0.757298
vt 0.074258 0.757708
vt 0.074354 0.758147
vt 0.074440 0.758611
vt 0.074516 0.759098
vt 0.074580 0.759606
vt 0.074633 0.760130
vt 0.074675 0.760667
vt 0.074704 0.761215
vt 0.074722 0.761770
vt 0.074727 0.762328
vt 0.074803 0.986911
vt 0.002014 0.987657
vt 0.074796 0.987470
vt 0.072797 0.994033
vt 0.003993 0.994779
vt 0.074777 0.988025
vt 0.074745 0.988574
vt 0.074702 0.989112
vt 0.074646 0.989637
vt 0.074580 0.990144
vt 0.074503 0.990632
vt 0.074415 0.991097
vt 0.074317 0.991536
vt 0.074210 0.991947
vt 0.074095 0.992327
vt 0.073971 0.992673
vt 0.073841 0.992983
vt 0.073704 0.993257
vt 0.073561 0.993491
vt 0.073414 0.993684
vt 0.073263 0.993836
vt 0.073109 0.993945
vt 0.072954 0.994011
vt 0.003837 0.994757
vt 0.003681 0.994691
vt 0.003528 0.994582
vt 0.003378 0.994430
vt 0.003231 0.994237
vt 0.003090 0.994003
vt 0.002954 0.993729
vt 0.002824 0.993419
vt 0.002702 0.993073
vt 0.002588 0.992693
vt 0.002482 0.992282
vt 0.002386 0.991843
vt 0.002300 0.991378
vt 0.002225 0.990890
vt 0.002160 0.990382
vt 0.002107 0.989858
vt 0.002066 0.989320
vt 0.002036 0.988771
vt 0.002019 0.988216
vt 0.001986 0.761215
vt 0.002017 0.760667
vt 0.002061 0.760130
vt 0.002116 0.759606
vt 0.002183 0.759098
vt 0.002260 0.758611
vt 0.002348 0.758147
vt 0.002445 0.757708
vt 0.002552 0.757298
vt 0.002668 0.756919
vt 0.002791 0.756573
vt 0.003059 0.755990
vt 0.003349 0.755562
vt 0.003500 0.755411
vt 0.003653 0.755302
vt 0.265369 0.450804
vt 0.256247 0.431948
vt 0.264653 0.450746
vt 0.260602 0.448025
vt 0.256275 0.433428
vt 0.263942 0.450572
vt 0.263239 0.450283
vt 0.262550 0.449881
vt 0.261878 0.449369
vt 0.261227 0.448749
vt 0.260007 0.447203
vt 0.259444 0.446286
vt 0.258918 0.445281
vt 0.258432 0.444194
vt 0.257989 0.443031
vt 0.257591 0.441800
vt 0.257241 0.440509
vt 0.256941 0.439164
vt 0.256693 0.437775
vt 0.256499 0.436350
vt 0.256359 0.434898
vt 0.256247 0.092554
vt 0.438688 0.431948
vt 0.256275 0.091075
vt 0.265369 0.073699
vt 0.256359 0.089605
vt 0.256499 0.088153
vt 0.256693 0.086728
vt 0.256941 0.085339
vt 0.257241 0.083994
vt 0.257591 0.082702
vt 0.257989 0.081471
vt 0.258432 0.080309
vt 0.258918 0.079222
vt 0.259444 0.078217
vt 0.260007 0.077300
vt 0.260602 0.076477
vt 0.261227 0.075754
vt 0.261878 0.075134
vt 0.263942 0.073931
vt 0.262550 0.074622
vt 0.263239 0.074220
vt 0.264653 0.073757
vt 0.429566 0.073699
vt 0.438688 0.092554
vt 0.430281 0.073757
vt 0.434332 0.076477
vt 0.438659 0.091075
vt 0.438575 0.089605
vt 0.430992 0.073931
vt 0.431695 0.074220
vt 0.432384 0.074622
vt 0.433056 0.075134
vt 0.433707 0.075754
vt 0.434927 0.077300
vt 0.435490 0.078217
vt 0.436015 0.079222
vt 0.436502 0.080309
vt 0.436945 0.081471
vt 0.437343 0.082702
vt 0.437693 0.083994
vt 0.437993 0.085339
vt 0.438241 0.086728
vt 0.438435 0.088153
vt 0.438659 0.433428
vt 0.438575 0.434898
vt 0.438435 0.436350
vt 0.438241 0.437775
vt 0.437993 0.439164
vt 0.437693 0.440509
vt 0.437343 0.441800
vt 0.436945 0.443031
vt 0.436502 0.444194
vt 0.436015 0.445281
vt 0.435490 0.446286
vt 0.434927 0.447203
vt 0.434332 0.448025
vt 0.433056 0.449369
vt 0.431695 0.450283
vt 0.430992 0.450572
vt 0.430281 0.450746
vn -0.0000 1.0000 0.0000
vn 0.0000 -1.0000 0.0000
vn -0.9964 0.0000 -0.0842
vn 0.6831 0.0000 0.7303
vn 0.6831 0.0000 -0.7303
vn -0.9901 0.0000 -0.1407
vn 0.6170 0.0000 0.7870
vn 0.7411 0.0000 -0.6714
vn -0.9803 0.0000 -0.1975
vn 0.5423 0.0000 0.8402
vn 0.7913 0.0000 -0.6114
vn -0.9670 0.0000 -0.2548
vn 0.0000 0.0000 1.0000
vn 0.4589 0.0000 0.8885
vn 0.8345 0.0000 -0.5510
vn -0.9498 0.0000 -0.3128
vn -0.0549 0.0000 0.9985
vn 0.3673 0.0000 0.9301
vn 0.8713 0.0000 -0.4907
vn -0.9285 0.0000 -0.3714
vn -0.1635 0.0000 0.9865
vn 0.2683 0.0000 0.9633
vn 0.9025 0.0000 -0.4307
vn -0.9025 0.0000 -0.4307
vn -0.2683 0.0000 0.9633
vn 0.1635 0.0000 0.9865
vn 0.9285 0.0000 -0.3714
vn -0.8714 0.0000 -0.4907
vn -0.3672 0.0000 0.9301
vn 0.0549 0.0000 0.9985
vn 0.9498 0.0000 -0.3128
vn -0.8345 0.0000 -0.5510
vn -0.4589 0.0000 0.8885
vn 0.9670 0.0000 -0.2548
vn -0.7913 0.0000 -0.6114
vn -0.5423 0.0000 0.8402
vn 0.9803 0.0000 -0.1975
vn -0.7410 0.0000 -0.6714
vn -0.6170 0.0000 0.7870
vn 0.9901 0.0000 -0.1407
vn -0.6831 0.0000 -0.7303
vn -0.6831 0.0000 0.7303
vn 0.9964 0.0000 -0.0842
vn -0.6170 0.0000 -0.7870
vn -0.7410 0.0000 0.6714
vn 0.9996 0.0000 -0.0281
vn -0.5423 0.0000 -0.8402
vn -0.7913 0.0000 0.6114
vn 1.0000 0.0000 -0.0000
vn -0.4589 0.0000 -0.8885
vn -0.8345 0.0000 0.5510
vn 0.9996 0.0000 0.0280
vn -0.3673 0.0000 -0.9301
vn -0.8714 0.0000 0.4907
vn 0.9964 0.0000 0.0842
vn -0.2683 0.0000 -0.9633
vn -0.9025 0.0000 0.4307
vn 0.9901 0.0000 0.1407
vn -0.1635 0.0000 -0.9865
vn -0.9285 0.0000 0.3714
vn 0.9803 0.0000 0.1975
vn -0.0549 0.0000 -0.9985
vn -0.9498 0.0000 0.3128
vn 0.9670 0.0000 0.2548
vn -0.0000 0.0000 -1.0000
vn -0.9670 0.0000 0.2548
vn 0.9498 0.0000 0.3128
vn 0.0549 0.0000 -0.9985
vn -0.9803 0.0000 0.1975
vn 0.9285 0.0000 0.3714
vn 0.1635 0.0000 -0.9865
vn -0.9901 0.0000 0.1407
vn 0.9025 0.0000 0.4307
vn 0.2683 0.0000 -0.9633
vn -0.9964 0.0000 0.0842
vn 0.8714 0.0000 0.4907
vn 0.3672 0.0000 -0.9301
vn -0.9996 0.0000 0.0281
vn 0.8345 0.0000 0.5510
vn 0.4589 0.0000 -0.8885
vn -1.0000 0.0000 0.0000
vn 0.7913 0.0000 0.6114
vn 0.5423 0.0000 -0.8402
vn -0.9996 0.0000 -0.0280
vn 0.7411 0.0000 0.6714
vn 0.6170 0.0000 -0.7869
vn 0.6832 0.0000 0.7303
vn 0.7410 0.0000 -0.6715
vn 0.3672 0.0000 0.9301
vn 0.8714 0.0000 -0.4907
vn -0.1635 0.0000 0.9866
vn -0.3673 0.0000 0.9301
vn -0.7411 0.0000 -0.6714
vn -0.6832 0.0000 -0.7303
vn -0.7411 0.0000 0.6714
vn -0.3672 0.0000 -0.9301
vn -0.8713 0.0000 0.4907
vn 0.8714 0.0000 0.4906
vn 0.3673 0.0000 -0.9301
vn 0.7410 0.0000 0.6715
vn 0.6170 0.0000 -0.7870
usemtl Material
s off
f 15/1/1 17/2/1 21/3/1
f 142/4/2 144/5/2 128/6/2
f 42/7/3 125/8/3 126/9/3
f 56/10/4 141/11/4 140/12/4
f 78/13/5 161/14/5 162/15/5
f 41/16/6 124/17/6 125/8/6
f 57/18/7 142/19/7 141/11/7
f 77/20/8 160/21/8 161/14/8
f 40/22/9 123/23/9 124/17/9
f 58/24/10 143/25/10 142/19/10
f 76/26/11 159/27/11 160/21/11
f 39/28/12 122/29/12 123/23/12
f 44/30/13 86/31/13 128/32/13
f 59/33/14 144/34/14 143/25/14
f 75/35/15 158/36/15 159/27/15
f 38/37/16 121/38/16 122/29/16
f 2/39/17 105/40/17 86/31/17
f 60/41/18 145/42/18 144/34/18
f 74/43/19 157/44/19 158/36/19
f 37/45/20 120/46/20 121/38/20
f 21/47/21 104/48/21 105/40/21
f 61/49/22 146/50/22 145/42/22
f 73/51/23 156/52/23 157/44/23
f 36/53/24 119/54/24 120/46/24
f 20/55/25 103/56/25 104/48/25
f 62/57/26 147/58/26 146/50/26
f 72/59/27 155/60/27 156/52/27
f 35/61/28 118/62/28 119/54/28
f 19/63/29 102/64/29 103/56/29
f 63/65/30 128/32/30 147/58/30
f 71/66/31 154/67/31 155/60/31
f 34/68/32 117/69/32 118/62/32
f 18/70/33 101/71/33 102/64/33
f 70/72/34 153/73/34 154/67/34
f 33/74/35 116/75/35 117/69/35
f 17/76/36 100/77/36 101/71/36
f 69/78/37 152/79/37 153/73/37
f 32/80/38 115/81/38 116/75/38
f 16/82/39 99/83/39 100/77/39
f 68/84/40 151/85/40 152/79/40
f 31/86/41 114/87/41 115/81/41
f 15/88/42 98/89/42 99/83/42
f 67/90/43 150/91/43 151/85/43
f 30/92/44 113/93/44 114/87/44
f 14/94/45 97/95/45 98/89/45
f 66/96/46 148/97/46 150/91/46
f 29/98/47 112/99/47 113/93/47
f 13/100/48 96/101/48 97/95/48
f 64/102/49 127/103/49 148/97/49
f 28/104/50 111/105/50 112/99/50
f 12/106/51 95/107/51 96/101/51
f 43/108/52 129/109/52 127/103/52
f 27/110/53 110/111/53 111/105/53
f 11/112/54 94/113/54 95/107/54
f 45/114/55 130/115/55 129/109/55
f 26/116/56 109/117/56 110/111/56
f 10/118/57 93/119/57 94/113/57
f 46/120/58 131/121/58 130/115/58
f 25/122/59 108/123/59 109/117/59
f 9/124/60 92/125/60 93/119/60
f 47/126/61 132/127/61 131/121/61
f 24/128/62 106/129/62 108/123/62
f 8/130/63 91/131/63 92/125/63
f 48/132/64 133/133/64 132/127/64
f 22/134/65 149/135/65 106/129/65
f 7/136/66 90/137/66 91/131/66
f 49/138/67 134/139/67 133/133/67
f 65/140/68 168/141/68 149/135/68
f 6/142/69 89/143/69 90/137/69
f 50/144/70 135/145/70 134/139/70
f 84/146/71 167/147/71 168/141/71
f 5/148/72 88/149/72 89/143/72
f 51/150/73 136/151/73 135/145/73
f 83/152/74 166/153/74 167/147/74
f 4/154/75 87/155/75 88/149/75
f 52/156/76 137/157/76 136/151/76
f 82/158/77 165/159/77 166/153/77
f 3/160/78 85/161/78 87/155/78
f 53/162/79 138/163/79 137/157/79
f 81/164/80 164/165/80 165/159/80
f 1/166/81 107/167/81 85/161/81
f 54/168/82 139/169/82 138/163/82
f 80/170/83 163/171/83 164/165/83
f 23/172/84 126/9/84 107/167/84
f 55/173/85 140/12/85 139/169/85
f 79/174/86 162/15/86 163/171/86
f 21/3/1 2/175/1 15/1/1
f 2/175/1 44/176/1 1/177/1
f 3/178/1 2/175/1 1/177/1
f 44/176/1 63/179/1 62/180/1
f 62/180/1 61/181/1 60/182/1
f 60/182/1 59/183/1 62/180/1
f 59/183/1 58/184/1 62/180/1
f 58/184/1 57/185/1 56/186/1
f 56/186/1 55/187/1 44/176/1
f 55/187/1 54/188/1 44/176/1
f 54/188/1 53/189/1 44/176/1
f 53/189/1 52/190/1 44/176/1
f 52/190/1 51/191/1 44/176/1
f 51/191/1 50/192/1 44/176/1
f 50/192/1 49/193/1 44/176/1
f 49/193/1 48/194/1 44/176/1
f 48/194/1 47/195/1 44/176/1
f 47/195/1 46/196/1 44/176/1
f 46/196/1 45/197/1 44/176/1
f 45/197/1 43/198/1 44/176/1
f 43/198/1 64/199/1 23/200/1
f 64/199/1 66/201/1 65/202/1
f 23/200/1 64/199/1 22/203/1
f 66/201/1 67/204/1 65/202/1
f 67/204/1 68/205/1 65/202/1
f 68/205/1 69/206/1 65/202/1
f 69/206/1 70/207/1 65/202/1
f 70/207/1 71/208/1 65/202/1
f 71/208/1 72/209/1 65/202/1
f 72/209/1 73/210/1 65/202/1
f 73/210/1 74/211/1 65/202/1
f 74/211/1 75/212/1 65/202/1
f 75/212/1 76/213/1 65/202/1
f 76/213/1 77/214/1 65/202/1
f 77/214/1 78/215/1 65/202/1
f 78/215/1 79/216/1 80/217/1
f 80/217/1 81/218/1 82/219/1
f 82/219/1 83/220/1 84/221/1
f 84/221/1 65/202/1 82/219/1
f 65/202/1 22/203/1 64/199/1
f 22/203/1 24/222/1 25/223/1
f 25/223/1 26/224/1 22/203/1
f 26/224/1 27/225/1 22/203/1
f 27/225/1 28/226/1 29/227/1
f 29/227/1 30/228/1 31/229/1
f 31/229/1 32/230/1 22/203/1
f 32/230/1 33/231/1 22/203/1
f 33/231/1 34/232/1 22/203/1
f 34/232/1 35/233/1 22/203/1
f 35/233/1 36/234/1 22/203/1
f 36/234/1 37/235/1 22/203/1
f 37/235/1 38/236/1 22/203/1
f 38/236/1 39/237/1 22/203/1
f 39/237/1 40/238/1 22/203/1
f 40/238/1 41/239/1 22/203/1
f 41/239/1 42/240/1 22/203/1
f 42/240/1 23/200/1 22/203/1
f 23/200/1 1/177/1 43/198/1
f 43/198/1 1/177/1 44/176/1
f 3/178/1 4/241/1 2/175/1
f 4/241/1 5/242/1 2/175/1
f 5/242/1 6/243/1 2/175/1
f 6/243/1 7/244/1 2/175/1
f 7/244/1 8/245/1 2/175/1
f 8/245/1 9/246/1 2/175/1
f 9/246/1 10/247/1 2/175/1
f 10/247/1 11/248/1 2/175/1
f 11/248/1 12/249/1 2/175/1
f 12/249/1 13/250/1 2/175/1
f 13/250/1 14/251/1 2/175/1
f 14/251/1 15/1/1 2/175/1
f 15/1/1 16/252/1 17/2/1
f 17/2/1 18/253/1 21/3/1
f 18/253/1 19/254/1 21/3/1
f 19/254/1 20/255/1 21/3/1
f 44/176/1 62/180/1 58/184/1
f 58/184/1 56/186/1 44/176/1
f 78/215/1 80/217/1 65/202/1
f 80/217/1 82/219/1 65/202/1
f 27/225/1 29/227/1 22/203/1
f 29/227/1 31/229/1 22/203/1
f 128/6/2 86/256/2 85/257/2
f 86/256/2 105/258/2 99/259/2
f 85/257/2 86/256/2 87/260/2
f 105/258/2 104/261/2 103/262/2
f 103/262/2 102/263/2 101/264/2
f 101/264/2 100/265/2 99/259/2
f 99/259/2 98/266/2 86/256/2
f 98/266/2 97/267/2 86/256/2
f 97/267/2 96/268/2 86/256/2
f 96/268/2 95/269/2 86/256/2
f 95/269/2 94/270/2 86/256/2
f 94/270/2 93/271/2 86/256/2
f 93/271/2 92/272/2 86/256/2
f 92/272/2 91/273/2 86/256/2
f 91/273/2 90/274/2 86/256/2
f 90/274/2 89/275/2 86/256/2
f 89/275/2 88/276/2 86/256/2
f 88/276/2 87/260/2 86/256/2
f 85/257/2 107/277/2 127/278/2
f 107/277/2 126/279/2 106/280/2
f 126/279/2 125/281/2 106/280/2
f 125/281/2 124/282/2 106/280/2
f 124/282/2 123/283/2 106/280/2
f 123/283/2 122/284/2 106/280/2
f 122/284/2 121/285/2 106/280/2
f 121/285/2 120/286/2 106/280/2
f 120/286/2 119/287/2 106/280/2
f 119/287/2 118/288/2 106/280/2
f 118/288/2 117/289/2 106/280/2
f 117/289/2 116/290/2 106/280/2
f 116/290/2 115/291/2 106/280/2
f 115/291/2 114/292/2 113/293/2
f 113/293/2 112/294/2 109/295/2
f 112/294/2 111/296/2 109/295/2
f 111/296/2 110/297/2 109/295/2
f 109/295/2 108/298/2 106/280/2
f 106/280/2 149/299/2 148/300/2
f 149/299/2 168/301/2 162/302/2
f 150/303/2 149/299/2 151/304/2
f 168/301/2 167/305/2 166/306/2
f 166/306/2 165/307/2 168/301/2
f 165/307/2 164/308/2 168/301/2
f 164/308/2 163/309/2 162/302/2
f 162/302/2 161/310/2 149/299/2
f 161/310/2 160/311/2 149/299/2
f 160/311/2 159/312/2 149/299/2
f 159/312/2 158/313/2 149/299/2
f 158/313/2 157/314/2 149/299/2
f 157/314/2 156/315/2 149/299/2
f 156/315/2 155/316/2 149/299/2
f 155/316/2 154/317/2 149/299/2
f 154/317/2 153/318/2 149/299/2
f 153/318/2 152/319/2 149/299/2
f 152/319/2 151/304/2 149/299/2
f 150/303/2 148/300/2 149/299/2
f 148/300/2 127/278/2 107/277/2
f 127/278/2 129/320/2 128/6/2
f 129/320/2 130/321/2 128/6/2
f 130/321/2 131/322/2 128/6/2
f 131/322/2 132/323/2 128/6/2
f 132/323/2 133/324/2 128/6/2
f 133/324/2 134/325/2 128/6/2
f 134/325/2 135/326/2 128/6/2
f 135/326/2 136/327/2 128/6/2
f 136/327/2 137/328/2 128/6/2
f 137/328/2 138/329/2 128/6/2
f 138/329/2 139/330/2 128/6/2
f 139/330/2 140/331/2 128/6/2
f 140/331/2 141/332/2 142/4/2
f 142/4/2 143/333/2 144/5/2
f 144/5/2 145/334/2 128/6/2
f 145/334/2 146/335/2 128/6/2
f 146/335/2 147/336/2 128/6/2
f 105/258/2 103/262/2 101/264/2
f 99/259/2 105/258/2 101/264/2
f 85/257/2 127/278/2 128/6/2
f 115/291/2 113/293/2 106/280/2
f 109/295/2 106/280/2 113/293/2
f 164/308/2 162/302/2 168/301/2
f 148/300/2 107/277/2 106/280/2
f 140/331/2 142/4/2 128/6/2
f 42/7/3 41/16/3 125/8/3
f 56/10/87 57/18/87 141/11/87
f 78/13/5 77/20/5 161/14/5
f 41/16/6 40/22/6 124/17/6
f 57/18/7 58/24/7 142/19/7
f 77/20/88 76/26/88 160/21/88
f 40/22/9 39/28/9 123/23/9
f 58/24/10 59/33/10 143/25/10
f 76/26/11 75/35/11 159/27/11
f 39/28/12 38/37/12 122/29/12
f 44/30/13 2/39/13 86/31/13
f 59/33/14 60/41/14 144/34/14
f 75/35/15 74/43/15 158/36/15
f 38/37/16 37/45/16 121/38/16
f 2/39/17 21/47/17 105/40/17
f 60/41/89 61/49/89 145/42/89
f 74/43/90 73/51/90 157/44/90
f 37/45/20 36/53/20 120/46/20
f 21/47/91 20/55/91 104/48/91
f 61/49/22 62/57/22 146/50/22
f 73/51/23 72/59/23 156/52/23
f 36/53/24 35/61/24 119/54/24
f 20/55/25 19/63/25 103/56/25
f 62/57/26 63/65/26 147/58/26
f 72/59/27 71/66/27 155/60/27
f 35/61/28 34/68/28 118/62/28
f 19/63/92 18/70/92 102/64/92
f 63/65/30 44/30/30 128/32/30
f 71/66/31 70/72/31 154/67/31
f 34/68/32 33/74/32 117/69/32
f 18/70/33 17/76/33 101/71/33
f 70/72/34 69/78/34 153/73/34
f 33/74/35 32/80/35 116/75/35
f 17/76/36 16/82/36 100/77/36
f 69/78/37 68/84/37 152/79/37
f 32/80/93 31/86/93 115/81/93
f 16/82/39 15/88/39 99/83/39
f 68/84/40 67/90/40 151/85/40
f 31/86/94 30/92/94 114/87/94
f 15/88/42 14/94/42 98/89/42
f 67/90/43 66/96/43 150/91/43
f 30/92/44 29/98/44 113/93/44
f 14/94/95 13/100/95 97/95/95
f 66/96/46 64/102/46 148/97/46
f 29/98/47 28/104/47 112/99/47
f 13/100/48 12/106/48 96/101/48
f 64/102/49 43/108/49 127/103/49
f 28/104/50 27/110/50 111/105/50
f 12/106/51 11/112/51 95/107/51
f 43/108/52 45/114/52 129/109/52
f 27/110/96 26/116/96 110/111/96
f 11/112/97 10/118/97 94/113/97
f 45/114/55 46/120/55 130/115/55
f 26/116/56 25/122/56 109/117/56
f 10/118/57 9/124/57 93/119/57
f 46/120/58 47/126/58 131/121/58
f 25/122/59 24/128/59 108/123/59
f 9/124/60 8/130/60 92/125/60
f 47/126/61 48/132/61 132/127/61
f 24/128/62 22/134/62 106/129/62
f 8/130/63 7/136/63 91/131/63
f 48/132/64 49/138/64 133/133/64
f 22/134/65 65/140/65 149/135/65
f 7/136/66 6/142/66 90/137/66
f 49/138/67 50/144/67 134/139/67
f 65/140/68 84/146/68 168/141/68
f 6/142/69 5/148/69 89/143/69
f 50/144/70 51/150/70 135/145/70
f 84/146/71 83/152/71 167/147/71
f 5/148/72 4/154/72 88/149/72
f 51/150/73 52/156/73 136/151/73
f 83/152/74 82/158/74 166/153/74
f 4/154/75 3/160/75 87/155/75
f 52/156/98 53/162/98 137/157/98
f 82/158/99 81/164/99 165/159/99
f 3/160/78 1/166/78 85/161/78
f 53/162/79 54/168/79 138/163/79
f 81/164/80 80/170/80 164/165/80
f 1/166/81 23/172/81 107/167/81
f 54/168/82 55/173/82 139/169/82
f 80/170/83 79/174/83 163/171/83
f 23/172/84 42/7/84 126/9/84
f 55/173/100 56/10/100 140/12/100
f 79/174/101 78/13/101 162/15/101
